<mxfile host="app.diagrams.net" modified="2024-02-10T05:14:15.210Z" agent="Mozilla/5.0 (Windows NT 10.0; Win64; x64) AppleWebKit/537.36 (KHTML, like Gecko) Chrome/121.0.0.0 Safari/537.36 Edg/121.0.0.0" version="23.1.2" etag="JsMXE1hQ511RYKxLoDIi" type="github">
  <diagram name="Page-1" id="3fo4hDpq8MDJEKPzps9l">
    <mxGraphModel>
      <root>
        <mxCell id="0" />
        <mxCell id="1" parent="0" />
      </root>
    </mxGraphModel>
  </diagram>
</mxfile>
